<svg width="60" height="60" viewBox="0 0 60 60" fill="none" xmlns="http://www.w3.org/2000/svg">
<g id="Group 5">
<circle id="Ellipse 2" cx="30" cy="30" r="28" stroke="url(#paint0_linear)" stroke-width="4"/>
<mask id="mask0" mask-type="alpha" maskUnits="userSpaceOnUse" x="7" y="14" width="48" height="33">
<g id="Group 7">
<path id="Vector 5" d="M8.01656 25.4061C33.8129 30.4872 37.518 19.3457 28.2097 17.669C18.9013 15.9923 23.0179 26.8313 29.7473 21.777" stroke="black" stroke-width="2"/>
<path id="Vector 9" d="M14.0166 41.4061C39.8129 46.4872 43.518 35.3457 34.2097 33.669C24.9013 31.9923 29.0179 42.8313 35.7473 37.777" stroke="black" stroke-width="2"/>
<path id="Vector 10" d="M28.0166 29.4061C53.8129 34.4872 57.518 23.3457 48.2097 21.669C38.9013 19.9923 43.0179 30.8313 49.7473 25.777" stroke="black" stroke-width="2"/>
</g>
</mask>
<g mask="url(#mask0)">
<g id="Rectangle 7">
<rect x="-9" y="-8" width="82" height="74" fill="#C4C4C4"/>
<rect x="-9" y="-8" width="82" height="74" fill="url(#paint1_linear)"/>
</g>
</g>
</g>
<defs>
<linearGradient id="paint0_linear" x1="30" y1="0" x2="30" y2="60" gradientUnits="userSpaceOnUse">
<stop stop-color="#0500FF"/>
<stop offset="1" stop-color="#8381FF"/>
</linearGradient>
<linearGradient id="paint1_linear" x1="32" y1="-8" x2="32" y2="66" gradientUnits="userSpaceOnUse">
<stop stop-color="#0500FF"/>
<stop offset="1" stop-color="#8381FF"/>
</linearGradient>
</defs>
</svg>
